<svg width="430" height="430" viewBox="0 0 430 430" fill="none" xmlns="http://www.w3.org/2000/svg">
<g clip-path="url(#clip0_26_22)">
<path d="M215 423.273C327.967 423.273 419.545 331.695 419.545 218.727C419.545 105.76 327.967 14.1818 215 14.1818C102.033 14.1818 10.4545 105.76 10.4545 218.727C10.4545 331.695 102.033 423.273 215 423.273Z" fill="#E6E6E6"/>
<mask id="mask0_26_22" style="mask-type:luminance" maskUnits="userSpaceOnUse" x="10" y="14" width="410" height="410">
<path d="M215 423.273C327.967 423.273 419.545 331.695 419.545 218.727C419.545 105.76 327.967 14.1818 215 14.1818C102.033 14.1818 10.4545 105.76 10.4545 218.727C10.4545 331.695 102.033 423.273 215 423.273Z" fill="white"/>
</mask>
<g mask="url(#mask0_26_22)">
<path d="M419.545 14.1818H10.4545V423.273H419.545V14.1818Z" fill="#FF4500"/>
</g>
<mask id="mask1_26_22" style="mask-type:luminance" maskUnits="userSpaceOnUse" x="-10" y="-54" width="450" height="478">
<path d="M10.4545 218.727C10.4545 331.695 102.033 423.273 215 423.273C327.967 423.273 419.545 331.695 419.545 218.727H440V-54H-10V218.727H10.4545Z" fill="white"/>
</mask>
<g mask="url(#mask1_26_22)">
<path d="M255.909 253.86V285.205H262.727C330.508 285.205 385.455 340.151 385.455 407.932V423.273H44.5455V407.932C44.5455 340.151 99.4923 285.205 167.273 285.205H174.091V253.86C144.709 239.902 123.589 211.376 120.066 177.616C110.137 176.212 102.5 167.68 102.5 157.364V133.5C102.5 123.365 109.871 114.951 119.545 113.328V102.818C119.545 50.1001 162.282 7.36365 215 7.36365C267.718 7.36365 310.455 50.1001 310.455 102.818V113.328C320.129 114.951 327.5 123.365 327.5 133.5V157.364C327.5 167.68 319.863 176.212 309.934 177.616C306.411 211.376 285.291 239.902 255.909 253.86Z" fill="#D0C6AC"/>
<mask id="mask2_26_22" style="mask-type:luminance" maskUnits="userSpaceOnUse" x="44" y="7" width="342" height="417">
<path d="M255.909 253.86V285.205H262.727C330.508 285.205 385.455 340.151 385.455 407.932V423.273H44.5455V407.932C44.5455 340.151 99.4923 285.205 167.273 285.205H174.091V253.86C144.709 239.902 123.589 211.376 120.066 177.616C110.137 176.212 102.5 167.68 102.5 157.364V133.5C102.5 123.365 109.871 114.951 119.545 113.328V102.818C119.545 50.1001 162.282 7.36365 215 7.36365C267.718 7.36365 310.455 50.1001 310.455 102.818V113.328C320.129 114.951 327.5 123.365 327.5 133.5V157.364C327.5 167.68 319.863 176.212 309.934 177.616C306.411 211.376 285.291 239.902 255.909 253.86Z" fill="white"/>
</mask>
<g mask="url(#mask2_26_22)">
<path d="M440 7.36365H-10V423.273H440V7.36365Z" fill="#FFDBB4"/>
</g>
<mask id="mask3_26_22" style="mask-type:luminance" maskUnits="userSpaceOnUse" x="44" y="7" width="342" height="417">
<path d="M255.909 253.86V285.205H262.727C330.508 285.205 385.455 340.151 385.455 407.932V423.273H44.5455V407.932C44.5455 340.151 99.4923 285.205 167.273 285.205H174.091V253.86C144.709 239.902 123.589 211.376 120.066 177.616C110.137 176.212 102.5 167.68 102.5 157.364V133.5C102.5 123.365 109.871 114.951 119.545 113.328V102.818C119.545 50.1001 162.282 7.36365 215 7.36365C267.718 7.36365 310.455 50.1001 310.455 102.818V113.328C320.129 114.951 327.5 123.365 327.5 133.5V157.364C327.5 167.68 319.863 176.212 309.934 177.616C306.411 211.376 285.291 239.902 255.909 253.86Z" fill="white"/>
</mask>
<g mask="url(#mask3_26_22)">
<path fill-rule="evenodd" clip-rule="evenodd" d="M310.455 142.023V181.227C310.455 233.945 267.718 276.682 215 276.682C162.282 276.682 119.545 233.945 119.545 181.227V142.023V167.591C119.545 220.309 162.282 263.045 215 263.045C267.718 263.045 310.455 220.309 310.455 167.591V142.023Z" fill="black" fill-opacity="0.1"/>
</g>
<path fill-rule="evenodd" clip-rule="evenodd" d="M174.091 258.053C143.548 261.47 120.022 270.804 119.553 294.827C75.4769 313.446 44.5455 357.076 44.5455 407.931V423.273H385.455V407.931C385.455 357.076 354.523 313.446 310.447 294.827C309.978 270.804 286.452 261.47 255.909 258.053V290.318C255.909 312.912 237.593 331.227 215 331.227C192.407 331.227 174.091 312.912 174.091 290.318V258.053Z" fill="#B7C1DB"/>
<mask id="mask4_26_22" style="mask-type:luminance" maskUnits="userSpaceOnUse" x="44" y="258" width="342" height="166">
<path fill-rule="evenodd" clip-rule="evenodd" d="M174.091 258.053C143.548 261.47 120.022 270.804 119.553 294.827C75.4769 313.446 44.5455 357.076 44.5455 407.931V423.273H385.455V407.931C385.455 357.076 354.523 313.446 310.447 294.827C309.978 270.804 286.452 261.47 255.909 258.053V290.318C255.909 312.912 237.593 331.227 215 331.227C192.407 331.227 174.091 312.912 174.091 290.318V258.053Z" fill="white"/>
</mask>
<g mask="url(#mask4_26_22)">
<path d="M440 235.773H-10V423.273H440V235.773Z" fill="#25557C"/>
</g>
<mask id="mask5_26_22" style="mask-type:luminance" maskUnits="userSpaceOnUse" x="44" y="258" width="342" height="166">
<path fill-rule="evenodd" clip-rule="evenodd" d="M174.091 258.053C143.548 261.47 120.022 270.804 119.553 294.827C75.4769 313.446 44.5455 357.076 44.5455 407.931V423.273H385.455V407.931C385.455 357.076 354.523 313.446 310.447 294.827C309.978 270.804 286.452 261.47 255.909 258.053V290.318C255.909 312.912 237.593 331.227 215 331.227C192.407 331.227 174.091 312.912 174.091 290.318V258.053Z" fill="white"/>
</mask>
<g mask="url(#mask5_26_22)">
<path fill-rule="evenodd" clip-rule="evenodd" d="M163.864 341.01V423.273H151.932V334.892C155.688 337.125 159.682 339.172 163.864 341.01ZM278.068 334.892V403.67C278.068 406.965 275.397 409.636 272.102 409.636C268.807 409.636 266.136 406.965 266.136 403.67V341.01C270.318 339.172 274.312 337.125 278.068 334.892Z" fill="#F4F4F4"/>
</g>
<mask id="mask6_26_22" style="mask-type:luminance" maskUnits="userSpaceOnUse" x="44" y="258" width="342" height="166">
<path fill-rule="evenodd" clip-rule="evenodd" d="M174.091 258.053C143.548 261.47 120.022 270.804 119.553 294.827C75.4769 313.446 44.5455 357.076 44.5455 407.931V423.273H385.455V407.931C385.455 357.076 354.523 313.446 310.447 294.827C309.978 270.804 286.452 261.47 255.909 258.053V290.318C255.909 312.912 237.593 331.227 215 331.227C192.407 331.227 174.091 312.912 174.091 290.318V258.053Z" fill="white"/>
</mask>
<g mask="url(#mask6_26_22)">
<path fill-rule="evenodd" clip-rule="evenodd" d="M145.046 257.462C119.391 262.314 101.648 271.982 101.648 290.843C101.648 324.443 157.962 351.682 215 351.682C272.038 351.682 328.352 324.443 328.352 290.843C328.352 271.982 310.609 262.314 284.954 257.462C300.44 263.172 310.455 272.772 310.455 288.745C310.455 323.504 263.032 351.682 215 351.682C166.968 351.682 119.545 323.504 119.545 288.745C119.545 272.772 129.56 263.172 145.046 257.462Z" fill="black" fill-opacity="0.16"/>
</g>
<path fill-rule="evenodd" clip-rule="evenodd" d="M182.815 200.196C184.618 216.375 198.34 228.955 215 228.955C231.712 228.955 245.467 216.297 247.202 200.046C247.342 198.738 245.881 196.568 244.05 196.568C218.663 196.568 199.212 196.568 186.171 196.568C184.329 196.568 182.634 198.577 182.815 200.196Z" fill="black" fill-opacity="0.7"/>
<mask id="mask7_26_22" style="mask-type:luminance" maskUnits="userSpaceOnUse" x="182" y="196" width="66" height="33">
<path fill-rule="evenodd" clip-rule="evenodd" d="M182.815 200.196C184.618 216.375 198.34 228.955 215 228.955C231.712 228.955 245.467 216.297 247.202 200.046C247.342 198.738 245.881 196.568 244.05 196.568C218.663 196.568 199.212 196.568 186.171 196.568C184.329 196.568 182.634 198.577 182.815 200.196Z" fill="white"/>
</mask>
<g mask="url(#mask7_26_22)">
<path d="M233.75 177.818H197.955C193.248 177.818 189.432 181.634 189.432 186.341V196.568C189.432 201.275 193.248 205.091 197.955 205.091H233.75C238.457 205.091 242.273 201.275 242.273 196.568V186.341C242.273 181.634 238.457 177.818 233.75 177.818Z" fill="white"/>
</g>
<mask id="mask8_26_22" style="mask-type:luminance" maskUnits="userSpaceOnUse" x="182" y="196" width="66" height="33">
<path fill-rule="evenodd" clip-rule="evenodd" d="M182.815 200.196C184.618 216.375 198.34 228.955 215 228.955C231.712 228.955 245.467 216.297 247.202 200.046C247.342 198.738 245.881 196.568 244.05 196.568C218.663 196.568 199.212 196.568 186.171 196.568C184.329 196.568 182.634 198.577 182.815 200.196Z" fill="white"/>
</mask>
<g mask="url(#mask8_26_22)">
<path d="M206.477 252.818C216.833 252.818 225.227 244.424 225.227 234.068C225.227 223.713 216.833 215.318 206.477 215.318C196.122 215.318 187.727 223.713 187.727 234.068C187.727 244.424 196.122 252.818 206.477 252.818Z" fill="#FF4F6D"/>
<path d="M223.523 252.818C233.878 252.818 242.273 244.424 242.273 234.068C242.273 223.713 233.878 215.318 223.523 215.318C213.167 215.318 204.773 223.713 204.773 234.068C204.773 244.424 213.167 252.818 223.523 252.818Z" fill="#FF4F6D"/>
</g>
<path fill-rule="evenodd" clip-rule="evenodd" d="M194.545 167.591C194.545 175.122 203.703 181.227 215 181.227C226.297 181.227 235.455 175.122 235.455 167.591" fill="black" fill-opacity="0.16"/>
<path fill-rule="evenodd" clip-rule="evenodd" d="M147.091 137.672C150.239 131.196 157.326 126.682 165.564 126.682C173.773 126.682 180.839 131.165 184.003 137.603C184.943 139.516 183.606 141.081 182.257 139.921C178.079 136.329 172.146 134.086 165.564 134.086C159.188 134.086 153.421 136.191 149.269 139.588C147.75 140.83 146.171 139.565 147.091 137.672Z" fill="black" fill-opacity="0.6"/>
<path fill-rule="evenodd" clip-rule="evenodd" d="M245.955 137.672C249.102 131.196 256.189 126.682 264.428 126.682C272.637 126.682 279.703 131.165 282.867 137.603C283.807 139.516 282.47 141.081 281.12 139.921C276.942 136.329 271.009 134.086 264.428 134.086C258.052 134.086 252.285 136.191 248.132 139.588C246.614 140.83 245.034 139.565 245.955 137.672Z" fill="black" fill-opacity="0.6"/>
<path d="M146.188 115.02C152.861 105.63 171.156 100.365 186.914 104.235C188.743 104.684 190.589 103.566 191.038 101.737C191.487 99.9088 190.369 98.0625 188.54 97.6135C170.239 93.1193 149.055 99.2165 140.63 111.071C139.54 112.605 139.9 114.734 141.434 115.824C142.969 116.915 145.097 116.555 146.188 115.02Z" fill="black" fill-opacity="0.6"/>
<path d="M283.813 115.02C277.139 105.63 258.845 100.365 243.086 104.235C241.258 104.684 239.412 103.566 238.963 101.737C238.514 99.9088 239.632 98.0625 241.46 97.6135C259.761 93.1193 280.946 99.2165 289.37 111.071C290.461 112.605 290.101 114.734 288.566 115.824C287.032 116.915 284.903 116.555 283.813 115.02Z" fill="black" fill-opacity="0.6"/>
<mask id="mask9_26_22" style="mask-type:luminance" maskUnits="userSpaceOnUse" x="-10" y="-54" width="450" height="478">
<path d="M440 -54H-10V423.273H440V-54Z" fill="white"/>
</mask>
<g mask="url(#mask9_26_22)">
<path fill-rule="evenodd" clip-rule="evenodd" d="M117.841 113.045C118.432 115.583 120.692 115.13 121.25 113.045C120.461 110.396 126.868 64.0365 143.409 51.6818C149.576 47.3921 182.628 43.5544 215.533 43.5777C248.083 43.6007 280.49 47.4384 286.591 51.6818C303.132 64.0365 309.539 110.396 308.75 113.045C309.308 115.13 311.568 115.583 312.159 113.045C313.385 95.4919 312.159 4.42221 215 5.65909C117.841 6.89597 116.615 95.4919 117.841 113.045Z" fill="#28354B"/>
<mask id="mask10_26_22" style="mask-type:luminance" maskUnits="userSpaceOnUse" x="117" y="5" width="196" height="110">
<path fill-rule="evenodd" clip-rule="evenodd" d="M117.841 113.045C118.432 115.583 120.692 115.13 121.25 113.045C120.461 110.396 126.868 64.0365 143.409 51.6818C149.576 47.3921 182.628 43.5544 215.533 43.5777C248.083 43.6007 280.49 47.4384 286.591 51.6818C303.132 64.0365 309.539 110.396 308.75 113.045C309.308 115.13 311.568 115.583 312.159 113.045C313.385 95.4919 312.159 4.42221 215 5.65909C117.841 6.89597 116.615 95.4919 117.841 113.045Z" fill="white"/>
</mask>
<g mask="url(#mask10_26_22)">
<path d="M566.136 3.95453H116.136V481.227H566.136V3.95453Z" fill="#724133"/>
</g>
</g>
</g>
</g>
<defs>
<clipPath id="clip0_26_22">
<rect width="430" height="430" fill="white"/>
</clipPath>
</defs>
</svg>
